  0
SECTION
  2
HEADER
  9
$INSBASE
 10
0
 20
0
  9
$EXTMIN
 10
0
 20
0
  9
$EXTMAX
 10
0.156250
 20
0.781250
  0
ENDSEC
  0
SECTION
  2
TABLES
  0
TABLE
  2
VPORT
 70
     2
  0
VPORT
  2
*ACTIVE
 70
     0
 10
0.0
 20
0.0
 11
1.0
 21
1.0
 12
531.14310447555249
 22
318.68586268533147
 13
0.0
 23
0.0
 14
10.0
 24
10.0
 15
10.0
 25
10.0
 16
0.0
 26
0.0
 36
1.0
 17
0.0
 27
0.0
 37
0.0
 40
637.37172537066294
 41
1.6666666666666661
 42
50.0
 43
0.0
 44
0.0
 50
0.0
 51
0.0
 71
     0
 72
   100
 73
     1
 74
     3
 75
     0
 76
     0
 77
     0
 78
     0
  0
ENDTAB
  0
TABLE
  2
LTYPE
 70
     1
  0
LTYPE
  2
CONTINUOUS
 70
     0
  3
Solid line
 72
    65
 73
     0
 40
0.0
  0
ENDTAB
  0
TABLE
  2
LAYER
 70
     1
  0
LAYER
  2
0
 70
     0
 62
     7
  6
CONTINUOUS
  0
ENDTAB
  0
TABLE
  2
STYLE
 70
     1
  0
STYLE
  2
STANDARD
 70
     0
 40
0.0
 41
1.0
 50
0.0
 71
     0
 42
2.5
  3
txt
  4

  0
ENDTAB
  0
TABLE
  2
VIEW
 70
     0
  0
ENDTAB
  0
TABLE
  2
UCS
 70
     0
  0
ENDTAB
  0
TABLE
  2
APPID
 70
     1
  0
APPID
  2
ACAD
 70
     0
  0
ENDTAB
  0
TABLE
  2
DIMSTYLE
 70
     1
  0
DIMSTYLE
  2
ISO-25
 70
     0
  3

  4

  5

  6

  7

 40
1.0
 41
2.5
 42
0.625
 43
3.75
 44
1.25
 45
0.0
 46
0.0
 47
0.0
 48
0.0
140
2.5
141
2.5
142
0.0
143
0.03937007874016
144
1.0
145
0.0
146
1.0
147
0.625
 71
     0
 72
     0
 73
     0
 74
     0
 75
     0
 76
     0
 77
     1
 78
     8
170
     0
171
     3
172
     1
173
     0
174
     0
175
     0
176
     0
177
     0
178
     0
  0
ENDTAB
  0
ENDSEC
  0
SECTION
  2
BLOCKS
  0
ENDSEC
  0
SECTION
  2
ENTITIES
  0
POLYLINE
  8
0
 66
1
 10
0.0
 20
0.0
 30
0.0
 40
0.012
 41
0.012
  0
VERTEX
  8
0
 10
0.117
 20
0.416
 30
0.000
  0
VERTEX
  8
0
 10
0.117
 20
0.396
 30
0.000
  0
SEQEND
  0
POLYLINE
  8
0
 66
1
 10
0.0
 20
0.0
 30
0.0
 40
0.004
 41
0.004
  0
VERTEX
  8
0
 10
0.059
 20
0.412
 30
0.000
  0
VERTEX
  8
0
 10
0.059
 20
0.381
 30
0.000
  0
SEQEND
  0
POLYLINE
  8
0
 66
1
 10
0.0
 20
0.0
 30
0.0
 40
0.004
 41
0.004
  0
VERTEX
  8
0
 10
0.109
 20
0.412
 30
0.000
  0
VERTEX
  8
0
 10
0.109
 20
0.373
 30
0.000
  0
SEQEND
  0
POLYLINE
  8
0
 66
1
 10
0.0
 20
0.0
 30
0.0
 40
0.004
 41
0.004
  0
VERTEX
  8
0
 10
0.041
 20
0.406
 30
0.000
  0
VERTEX
  8
0
 10
0.049
 20
0.406
 30
0.000
  0
SEQEND
  0
POLYLINE
  8
0
 66
1
 10
0.0
 20
0.0
 30
0.0
 40
0.004
 41
0.004
  0
VERTEX
  8
0
 10
0.055
 20
0.408
 30
0.000
  0
VERTEX
  8
0
 10
0.055
 20
0.389
 30
0.000
  0
SEQEND
  0
POLYLINE
  8
0
 66
1
 10
0.0
 20
0.0
 30
0.0
 40
0.008
 41
0.008
  0
VERTEX
  8
0
 10
0.049
 20
0.404
 30
0.000
  0
VERTEX
  8
0
 10
0.049
 20
0.393
 30
0.000
  0
SEQEND
  0
POLYLINE
  8
0
 66
1
 10
0.0
 20
0.0
 30
0.0
 40
0.004
 41
0.004
  0
VERTEX
  8
0
 10
0.105
 20
0.404
 30
0.000
  0
VERTEX
  8
0
 10
0.105
 20
0.377
 30
0.000
  0
SEQEND
  0
POLYLINE
  8
0
 66
1
 10
0.0
 20
0.0
 30
0.0
 40
0.008
 41
0.008
  0
VERTEX
  8
0
 10
0.100
 20
0.400
 30
0.000
  0
VERTEX
  8
0
 10
0.100
 20
0.381
 30
0.000
  0
SEQEND
  0
POLYLINE
  8
0
 66
1
 10
0.0
 20
0.0
 30
0.0
 40
0.004
 41
0.004
  0
VERTEX
  8
0
 10
0.062
 20
0.396
 30
0.000
  0
VERTEX
  8
0
 10
0.062
 20
0.369
 30
0.000
  0
SEQEND
  0
POLYLINE
  8
0
 66
1
 10
0.0
 20
0.0
 30
0.0
 40
0.008
 41
0.008
  0
VERTEX
  8
0
 10
0.115
 20
0.396
 30
0.000
  0
VERTEX
  8
0
 10
0.115
 20
0.381
 30
0.000
  0
SEQEND
  0
POLYLINE
  8
0
 66
1
 10
0.0
 20
0.0
 30
0.0
 40
0.004
 41
0.004
  0
VERTEX
  8
0
 10
0.094
 20
0.393
 30
0.000
  0
VERTEX
  8
0
 10
0.094
 20
0.369
 30
0.000
  0
SEQEND
  0
POLYLINE
  8
0
 66
1
 10
0.0
 20
0.0
 30
0.0
 40
0.008
 41
0.008
  0
VERTEX
  8
0
 10
0.068
 20
0.389
 30
0.000
  0
VERTEX
  8
0
 10
0.068
 20
0.377
 30
0.000
  0
SEQEND
  0
POLYLINE
  8
0
 66
1
 10
0.0
 20
0.0
 30
0.0
 40
0.012
 41
0.012
  0
VERTEX
  8
0
 10
0.080
 20
0.383
 30
0.000
  0
VERTEX
  8
0
 10
0.092
 20
0.383
 30
0.000
  0
SEQEND
  0
POLYLINE
  8
0
 66
1
 10
0.0
 20
0.0
 30
0.0
 40
0.008
 41
0.008
  0
VERTEX
  8
0
 10
0.072
 20
0.381
 30
0.000
  0
VERTEX
  8
0
 10
0.080
 20
0.381
 30
0.000
  0
SEQEND
  0
POLYLINE
  8
0
 66
1
 10
0.0
 20
0.0
 30
0.0
 40
0.004
 41
0.004
  0
VERTEX
  8
0
 10
0.098
 20
0.381
 30
0.000
  0
VERTEX
  8
0
 10
0.098
 20
0.369
 30
0.000
  0
SEQEND
  0
POLYLINE
  8
0
 66
1
 10
0.0
 20
0.0
 30
0.0
 40
0.004
 41
0.004
  0
VERTEX
  8
0
 10
0.113
 20
0.381
 30
0.000
  0
VERTEX
  8
0
 10
0.113
 20
0.373
 30
0.000
  0
SEQEND
  0
POLYLINE
  8
0
 66
1
 10
0.0
 20
0.0
 30
0.0
 40
0.004
 41
0.004
  0
VERTEX
  8
0
 10
0.066
 20
0.377
 30
0.000
  0
VERTEX
  8
0
 10
0.066
 20
0.369
 30
0.000
  0
SEQEND
  0
POLYLINE
  8
0
 66
1
 10
0.0
 20
0.0
 30
0.0
 40
0.004
 41
0.004
  0
VERTEX
  8
0
 10
0.088
 20
0.375
 30
0.000
  0
VERTEX
  8
0
 10
0.092
 20
0.375
 30
0.000
  0
SEQEND
  0
POLYLINE
  8
0
 66
1
 10
0.0
 20
0.0
 30
0.0
 40
0.004
 41
0.004
  0
VERTEX
  8
0
 10
0.062
 20
0.287
 30
0.000
  0
VERTEX
  8
0
 10
0.062
 20
0.279
 30
0.000
  0
SEQEND
  0
POLYLINE
  8
0
 66
1
 10
0.0
 20
0.0
 30
0.0
 40
0.004
 41
0.004
  0
VERTEX
  8
0
 10
0.080
 20
0.285
 30
0.000
  0
VERTEX
  8
0
 10
0.092
 20
0.285
 30
0.000
  0
SEQEND
  0
POLYLINE
  8
0
 66
1
 10
0.0
 20
0.0
 30
0.0
 40
0.004
 41
0.004
  0
VERTEX
  8
0
 10
0.059
 20
0.283
 30
0.000
  0
VERTEX
  8
0
 10
0.059
 20
0.275
 30
0.000
  0
SEQEND
  0
POLYLINE
  8
0
 66
1
 10
0.0
 20
0.0
 30
0.0
 40
0.004
 41
0.004
  0
VERTEX
  8
0
 10
0.064
 20
0.281
 30
0.000
  0
VERTEX
  8
0
 10
0.068
 20
0.281
 30
0.000
  0
SEQEND
  0
POLYLINE
  8
0
 66
1
 10
0.0
 20
0.0
 30
0.0
 40
0.004
 41
0.004
  0
VERTEX
  8
0
 10
0.084
 20
0.281
 30
0.000
  0
VERTEX
  8
0
 10
0.092
 20
0.281
 30
0.000
  0
SEQEND
  0
POLYLINE
  8
0
 66
1
 10
0.0
 20
0.0
 30
0.0
 40
0.004
 41
0.004
  0
VERTEX
  8
0
 10
0.088
 20
0.277
 30
0.000
  0
VERTEX
  8
0
 10
0.092
 20
0.277
 30
0.000
  0
SEQEND
  0
POLYLINE
  8
0
 66
1
 10
0.0
 20
0.0
 30
0.0
 40
0.004
 41
0.004
  0
VERTEX
  8
0
 10
0.053
 20
0.273
 30
0.000
  0
VERTEX
  8
0
 10
0.057
 20
0.273
 30
0.000
  0
SEQEND
  0
POLYLINE
  8
0
 66
1
 10
0.0
 20
0.0
 30
0.0
 40
0.004
 41
0.004
  0
VERTEX
  8
0
 10
0.092
 20
0.273
 30
0.000
  0
VERTEX
  8
0
 10
0.096
 20
0.273
 30
0.000
  0
SEQEND
  0
POLYLINE
  8
0
 66
1
 10
0.0
 20
0.0
 30
0.0
 40
0.004
 41
0.004
  0
VERTEX
  8
0
 10
0.049
 20
0.270
 30
0.000
  0
VERTEX
  8
0
 10
0.053
 20
0.270
 30
0.000
  0
SEQEND
  0
POLYLINE
  8
0
 66
1
 10
0.0
 20
0.0
 30
0.0
 40
0.004
 41
0.004
  0
VERTEX
  8
0
 10
0.096
 20
0.270
 30
0.000
  0
VERTEX
  8
0
 10
0.100
 20
0.270
 30
0.000
  0
SEQEND
  0
POLYLINE
  8
0
 66
1
 10
0.0
 20
0.0
 30
0.0
 40
0.004
 41
0.004
  0
VERTEX
  8
0
 10
0.045
 20
0.266
 30
0.000
  0
VERTEX
  8
0
 10
0.049
 20
0.266
 30
0.000
  0
SEQEND
  0
POLYLINE
  8
0
 66
1
 10
0.0
 20
0.0
 30
0.0
 40
0.004
 41
0.004
  0
VERTEX
  8
0
 10
0.100
 20
0.266
 30
0.000
  0
VERTEX
  8
0
 10
0.119
 20
0.266
 30
0.000
  0
SEQEND
  0
POLYLINE
  8
0
 66
1
 10
0.0
 20
0.0
 30
0.0
 40
0.004
 41
0.004
  0
VERTEX
  8
0
 10
0.104
 20
0.262
 30
0.000
  0
VERTEX
  8
0
 10
0.119
 20
0.262
 30
0.000
  0
SEQEND
  0
ENDSEC
  0
EOF
