  0
SECTION
  2
HEADER
  9
$INSBASE
 10
0
 20
0
  9
$EXTMIN
 10
0
 20
0
  9
$EXTMAX
 10
0.555556
 20
2.777778
  0
ENDSEC
  0
SECTION
  2
TABLES
  0
ENDSEC
  0
SECTION
  2
BLOCKS
  0
ENDSEC
  0
SECTION
  2
ENTITIES
  0
POLYLINE
  8
0
 66
1
 10
0.0
 20
0.0
 30
0.0
 40
0.042
 41
0.042
  0
VERTEX
  8
0
 10
0.417
 20
1.521
 30
0.000
  0
VERTEX
  8
0
 10
0.417
 20
1.368
 30
0.000
  0
SEQEND
  0
POLYLINE
  8
0
 66
1
 10
0.0
 20
0.0
 30
0.0
 40
0.028
 41
0.028
  0
VERTEX
  8
0
 10
0.382
 20
1.493
 30
0.000
  0
VERTEX
  8
0
 10
0.382
 20
1.257
 30
0.000
  0
SEQEND
  0
POLYLINE
  8
0
 66
1
 10
0.0
 20
0.0
 30
0.0
 40
0.014
 41
0.014
  0
VERTEX
  8
0
 10
0.361
 20
1.479
 30
0.000
  0
VERTEX
  8
0
 10
0.361
 20
1.285
 30
0.000
  0
SEQEND
  0
POLYLINE
  8
0
 66
1
 10
0.0
 20
0.0
 30
0.0
 40
0.028
 41
0.028
  0
VERTEX
  8
0
 10
0.160
 20
1.465
 30
0.000
  0
VERTEX
  8
0
 10
0.160
 20
1.396
 30
0.000
  0
SEQEND
  0
POLYLINE
  8
0
 66
1
 10
0.0
 20
0.0
 30
0.0
 40
0.042
 41
0.042
  0
VERTEX
  8
0
 10
0.208
 20
1.465
 30
0.000
  0
VERTEX
  8
0
 10
0.208
 20
1.368
 30
0.000
  0
SEQEND
  0
POLYLINE
  8
0
 66
1
 10
0.0
 20
0.0
 30
0.0
 40
0.014
 41
0.014
  0
VERTEX
  8
0
 10
0.181
 20
1.451
 30
0.000
  0
VERTEX
  8
0
 10
0.181
 20
1.382
 30
0.000
  0
SEQEND
  0
POLYLINE
  8
0
 66
1
 10
0.0
 20
0.0
 30
0.0
 40
0.014
 41
0.014
  0
VERTEX
  8
0
 10
0.347
 20
1.438
 30
0.000
  0
VERTEX
  8
0
 10
0.347
 20
1.299
 30
0.000
  0
SEQEND
  0
POLYLINE
  8
0
 66
1
 10
0.0
 20
0.0
 30
0.0
 40
0.014
 41
0.014
  0
VERTEX
  8
0
 10
0.333
 20
1.424
 30
0.000
  0
VERTEX
  8
0
 10
0.333
 20
1.299
 30
0.000
  0
SEQEND
  0
POLYLINE
  8
0
 66
1
 10
0.0
 20
0.0
 30
0.0
 40
0.014
 41
0.014
  0
VERTEX
  8
0
 10
0.160
 20
1.389
 30
0.000
  0
VERTEX
  8
0
 10
0.174
 20
1.389
 30
0.000
  0
SEQEND
  0
POLYLINE
  8
0
 66
1
 10
0.0
 20
0.0
 30
0.0
 40
0.014
 41
0.014
  0
VERTEX
  8
0
 10
0.236
 20
1.396
 30
0.000
  0
VERTEX
  8
0
 10
0.236
 20
1.299
 30
0.000
  0
SEQEND
  0
POLYLINE
  8
0
 66
1
 10
0.0
 20
0.0
 30
0.0
 40
0.028
 41
0.028
  0
VERTEX
  8
0
 10
0.312
 20
1.396
 30
0.000
  0
VERTEX
  8
0
 10
0.312
 20
1.326
 30
0.000
  0
SEQEND
  0
POLYLINE
  8
0
 66
1
 10
0.0
 20
0.0
 30
0.0
 40
0.056
 41
0.056
  0
VERTEX
  8
0
 10
0.243
 20
1.354
 30
0.000
  0
VERTEX
  8
0
 10
0.299
 20
1.354
 30
0.000
  0
SEQEND
  0
POLYLINE
  8
0
 66
1
 10
0.0
 20
0.0
 30
0.0
 40
0.028
 41
0.028
  0
VERTEX
  8
0
 10
0.215
 20
1.368
 30
0.000
  0
VERTEX
  8
0
 10
0.215
 20
1.326
 30
0.000
  0
SEQEND
  0
POLYLINE
  8
0
 66
1
 10
0.0
 20
0.0
 30
0.0
 40
0.028
 41
0.028
  0
VERTEX
  8
0
 10
0.410
 20
1.368
 30
0.000
  0
VERTEX
  8
0
 10
0.410
 20
1.326
 30
0.000
  0
SEQEND
  0
POLYLINE
  8
0
 66
1
 10
0.0
 20
0.0
 30
0.0
 40
0.014
 41
0.014
  0
VERTEX
  8
0
 10
0.222
 20
1.326
 30
0.000
  0
VERTEX
  8
0
 10
0.222
 20
1.299
 30
0.000
  0
SEQEND
  0
POLYLINE
  8
0
 66
1
 10
0.0
 20
0.0
 30
0.0
 40
0.014
 41
0.014
  0
VERTEX
  8
0
 10
0.243
 20
1.319
 30
0.000
  0
VERTEX
  8
0
 10
0.257
 20
1.319
 30
0.000
  0
SEQEND
  0
POLYLINE
  8
0
 66
1
 10
0.0
 20
0.0
 30
0.0
 40
0.014
 41
0.014
  0
VERTEX
  8
0
 10
0.312
 20
1.319
 30
0.000
  0
VERTEX
  8
0
 10
0.326
 20
1.319
 30
0.000
  0
SEQEND
  0
POLYLINE
  8
0
 66
1
 10
0.0
 20
0.0
 30
0.0
 40
0.014
 41
0.014
  0
VERTEX
  8
0
 10
0.403
 20
1.326
 30
0.000
  0
VERTEX
  8
0
 10
0.403
 20
1.257
 30
0.000
  0
SEQEND
  0
POLYLINE
  8
0
 66
1
 10
0.0
 20
0.0
 30
0.0
 40
0.028
 41
0.028
  0
VERTEX
  8
0
 10
0.312
 20
1.035
 30
0.000
  0
VERTEX
  8
0
 10
0.312
 20
0.979
 30
0.000
  0
SEQEND
  0
POLYLINE
  8
0
 66
1
 10
0.0
 20
0.0
 30
0.0
 40
0.028
 41
0.028
  0
VERTEX
  8
0
 10
0.215
 20
1.021
 30
0.000
  0
VERTEX
  8
0
 10
0.215
 20
0.979
 30
0.000
  0
SEQEND
  0
POLYLINE
  8
0
 66
1
 10
0.0
 20
0.0
 30
0.0
 40
0.028
 41
0.028
  0
VERTEX
  8
0
 10
0.229
 20
1.007
 30
0.000
  0
VERTEX
  8
0
 10
0.299
 20
1.007
 30
0.000
  0
SEQEND
  0
POLYLINE
  8
0
 66
1
 10
0.0
 20
0.0
 30
0.0
 40
0.014
 41
0.014
  0
VERTEX
  8
0
 10
0.333
 20
1.021
 30
0.000
  0
VERTEX
  8
0
 10
0.333
 20
0.951
 30
0.000
  0
SEQEND
  0
POLYLINE
  8
0
 66
1
 10
0.0
 20
0.0
 30
0.0
 40
0.014
 41
0.014
  0
VERTEX
  8
0
 10
0.194
 20
0.993
 30
0.000
  0
VERTEX
  8
0
 10
0.194
 20
0.951
 30
0.000
  0
SEQEND
  0
POLYLINE
  8
0
 66
1
 10
0.0
 20
0.0
 30
0.0
 40
0.028
 41
0.028
  0
VERTEX
  8
0
 10
0.368
 20
0.979
 30
0.000
  0
VERTEX
  8
0
 10
0.410
 20
0.979
 30
0.000
  0
SEQEND
  0
POLYLINE
  8
0
 66
1
 10
0.0
 20
0.0
 30
0.0
 40
0.014
 41
0.014
  0
VERTEX
  8
0
 10
0.181
 20
0.979
 30
0.000
  0
VERTEX
  8
0
 10
0.181
 20
0.938
 30
0.000
  0
SEQEND
  0
POLYLINE
  8
0
 66
1
 10
0.0
 20
0.0
 30
0.0
 40
0.014
 41
0.014
  0
VERTEX
  8
0
 10
0.201
 20
0.972
 30
0.000
  0
VERTEX
  8
0
 10
0.215
 20
0.972
 30
0.000
  0
SEQEND
  0
POLYLINE
  8
0
 66
1
 10
0.0
 20
0.0
 30
0.0
 40
0.014
 41
0.014
  0
VERTEX
  8
0
 10
0.312
 20
0.972
 30
0.000
  0
VERTEX
  8
0
 10
0.326
 20
0.972
 30
0.000
  0
SEQEND
  0
POLYLINE
  8
0
 66
1
 10
0.0
 20
0.0
 30
0.0
 40
0.014
 41
0.014
  0
VERTEX
  8
0
 10
0.347
 20
0.979
 30
0.000
  0
VERTEX
  8
0
 10
0.347
 20
0.938
 30
0.000
  0
SEQEND
  0
POLYLINE
  8
0
 66
1
 10
0.0
 20
0.0
 30
0.0
 40
0.028
 41
0.028
  0
VERTEX
  8
0
 10
0.146
 20
0.951
 30
0.000
  0
VERTEX
  8
0
 10
0.174
 20
0.951
 30
0.000
  0
SEQEND
  0
POLYLINE
  8
0
 66
1
 10
0.0
 20
0.0
 30
0.0
 40
0.014
 41
0.014
  0
VERTEX
  8
0
 10
0.361
 20
0.965
 30
0.000
  0
VERTEX
  8
0
 10
0.361
 20
0.924
 30
0.000
  0
SEQEND
  0
POLYLINE
  8
0
 66
1
 10
0.0
 20
0.0
 30
0.0
 40
0.042
 41
0.042
  0
VERTEX
  8
0
 10
0.403
 20
0.965
 30
0.000
  0
VERTEX
  8
0
 10
0.403
 20
0.910
 30
0.000
  0
SEQEND
  0
POLYLINE
  8
0
 66
1
 10
0.0
 20
0.0
 30
0.0
 40
0.014
 41
0.014
  0
VERTEX
  8
0
 10
0.375
 20
0.951
 30
0.000
  0
VERTEX
  8
0
 10
0.375
 20
0.924
 30
0.000
  0
SEQEND
  0
POLYLINE
  8
0
 66
1
 10
0.0
 20
0.0
 30
0.0
 40
0.014
 41
0.014
  0
VERTEX
  8
0
 10
0.431
 20
0.951
 30
0.000
  0
VERTEX
  8
0
 10
0.431
 20
0.896
 30
0.000
  0
SEQEND
  0
POLYLINE
  8
0
 66
1
 10
0.0
 20
0.0
 30
0.0
 40
0.014
 41
0.014
  0
VERTEX
  8
0
 10
0.146
 20
0.931
 30
0.000
  0
VERTEX
  8
0
 10
0.160
 20
0.931
 30
0.000
  0
SEQEND
  0
POLYLINE
  8
0
 66
1
 10
0.0
 20
0.0
 30
0.0
 40
0.014
 41
0.014
  0
VERTEX
  8
0
 10
0.396
 20
0.903
 30
0.000
  0
VERTEX
  8
0
 10
0.424
 20
0.903
 30
0.000
  0
SEQEND
  0
ENDSEC
  0
EOF
